<svg fill="currentColor" ria-hiddaen="true" style="position: absolute; width: 0; height: 0; overflow: hidden;" version="1.1" xmlns="http://www.w3.org/2000/svg" xmlns:xlink="http://www.w3.org/1999/xlink">
    
    <defs>

      
        <symbol id="search" viewBox="0 0 24 24"> 

            <path d="M16.3805 14H15.5905L15.3105 13.73C16.2905 12.59 16.8805 11.11 16.8805 9.5C16.8805 5.91 13.9705 3 10.3805 3C6.79049 3 3.88049 5.91 3.88049 9.5C3.88049 13.09 6.79049 16 10.3805 16C11.9905 16 13.4705 15.41 14.6105 14.43L14.8805 14.71V15.5L19.8805 20.49L21.3705 19L16.3805 14ZM10.3805 14C7.89049 14 5.88049 11.99 5.88049 9.5C5.88049 7.01 7.89049 5 10.3805 5C12.8705 5 14.8805 7.01 14.8805 9.5C14.8805 11.99 12.8705 14 10.3805 14Z" fill="white"/>

        </symbol>

        <symbol id="arrow-to-left" viewBox="0 0 15 24">   
            <path fill-rule="evenodd" clip-rule="evenodd" d="M6.07336 12.1394L13.5725 19.6386C14.5489 20.6149 14.5489 22.1978 13.5725 23.1741C12.5962 24.1504 11.0133 24.1504 10.037 23.1741L0.732233 13.8693C-0.244078 12.893 -0.244078 11.3101 0.732233 10.3338C0.857529 10.2085 0.992815 10.0993 1.13553 10.0061L10.4094 0.732233C11.3858 -0.244078 12.9687 -0.244078 13.945 0.732233C14.9213 1.70854 14.9213 3.29146 13.945 4.26777L6.07336 12.1394Z" fill="#020B20"/>
        </symbol>

        <symbol id="arrow-to-right" viewBox="0 0 15 24">   
            <path fill-rule="evenodd" clip-rule="evenodd" d="M8.60389 12.1394L1.1047 19.6386C0.128388 20.6149 0.128388 22.1978 1.1047 23.1741C2.08101 24.1504 3.66392 24.1504 4.64023 23.1741L13.945 13.8693C14.9213 12.893 14.9213 11.3101 13.945 10.3338C13.8197 10.2085 13.6844 10.0993 13.5417 10.0061L4.2678 0.732233C3.29149 -0.244078 1.70858 -0.244078 0.732269 0.732233C-0.244041 1.70854 -0.244041 3.29146 0.732269 4.26777L8.60389 12.1394Z" fill="#020B20"/>
        </symbol>

        <symbol id="circles" viewBox="0 0 196 19">   
           
            <circle cx="85.5" cy="9.5" r="9.5" fill="#85A3B2"/>
            <circle cx="44.5" cy="9.5" r="9.5" fill="#85A3B2"/>
            <circle cx="9.5" cy="9.5" r="9.5" fill="#85A3B2"/>
            <circle cx="186.5" cy="9.5" r="9.5" fill="#85A3B2"/>
            <rect x="110" width="50" height="19" rx="9.5" fill="#DD2242"/>
            
        </symbol>

        <symbol id="flower" viewBox="0 0 50 49">  
            <path d="M36.7829 15.3143V7.65842C36.7829 6.81284 36.0971 6.12726 35.251 6.12726H33.719V1.53375C33.719 0.68816 33.0332 0.0025787 32.187 0.0025787C30.0182 0.0025787 26.6967 -0.163553 22.7976 2.1711C20.3739 1.45001 18.6597 1.53375 16.8674 1.53375C16.0213 1.53375 15.3354 2.21933 15.3354 3.06492V6.12726H13.8035C12.9573 6.12726 12.2715 6.81284 12.2715 7.65842V15.3143C12.2715 21.5501 16.9579 26.7123 22.9952 27.4681V47.4688C22.9952 48.3144 23.6811 49 24.5272 49C25.3733 49 26.0592 48.3144 26.0592 47.4688V42.1097H28.3571C33.0031 42.1097 36.7829 38.3319 36.7829 33.6883V31.3915C36.7829 30.546 36.0971 29.8604 35.251 29.8604H31.4211C29.3859 29.8604 27.517 30.5853 26.0592 31.7903V27.4674C32.0876 26.7212 36.7829 21.5847 36.7829 15.3143ZM33.719 15.3143C33.719 18.0393 32.5133 20.5004 30.6076 22.1879C30.6377 21.9422 30.6551 21.6926 30.6551 21.4389C30.6551 17.5614 29.2047 14.0165 26.8187 11.3159C28.8415 9.93633 31.2399 9.18959 33.719 9.18959V15.3143ZM30.6551 3.06492V6.43617C30.372 6.49378 30.0908 6.55952 29.812 6.63292C28.8182 5.52101 27.6847 4.57369 26.4472 3.8082C27.7848 3.31938 29.2049 3.06492 30.6551 3.06492ZM18.3994 4.59609C21.4429 4.59609 24.3985 5.70685 26.6972 7.82915C25.9385 8.22046 25.2111 8.67665 24.5227 9.1939C22.7415 7.85547 20.6602 6.89562 18.3994 6.43512V4.59609ZM15.3354 15.3143V9.18959C22.0932 9.18959 27.5911 14.6846 27.5911 21.4389C27.5911 23.15 26.1774 24.5443 24.4467 24.4998C19.0647 24.367 15.3354 20.0933 15.3354 15.3143ZM31.4211 32.9227H33.719V33.6883C33.719 36.6433 31.3137 39.0474 28.3571 39.0474H26.0592V38.2818C26.0592 35.3268 28.4646 32.9227 31.4211 32.9227Z" fill="white"/>
        </symbol>

        <symbol id="number-line" viewBox="0 0 59 893">  

            <rect opacity="0.3" x="29.3435" y="47.2578" width="2.93434" height="817.215" fill="#151439" fill-opacity="0.4"/>
            <path fill-rule="evenodd" clip-rule="evenodd" d="M29.3434 892.349C45.5494 892.349 58.6869 879.211 58.6869 863.006C58.6869 846.8 45.5494 833.662 29.3434 833.662C13.1375 833.662 0 846.8 0 863.006C0 879.211 13.1375 892.349 29.3434 892.349Z" fill="#DD2242"/>
            <path d="M30.0533 872.009C28.8561 872.009 27.7645 871.798 26.7786 871.375C25.8102 870.935 25.0356 870.275 24.4546 869.395C23.8736 868.514 23.5655 867.414 23.5302 866.094H26.3032C26.3384 867.08 26.6729 867.916 27.3067 868.603C27.9582 869.272 28.8737 869.606 30.0533 869.606C31.1801 869.606 32.0428 869.298 32.6414 868.682C33.24 868.048 33.5393 867.264 33.5393 866.331C33.5393 865.205 33.1343 864.368 32.3245 863.822C31.5322 863.277 30.5551 863.004 29.3931 863.004H28.0198V860.68H29.4195C30.4582 860.68 31.2945 860.433 31.9283 859.94C32.5798 859.447 32.9055 858.752 32.9055 857.854C32.9055 857.097 32.6502 856.481 32.1396 856.005C31.6466 855.53 30.9424 855.292 30.0269 855.292C29.0761 855.292 28.3279 855.574 27.7821 856.137C27.2363 856.683 26.937 857.37 26.8842 858.197H24.1112C24.1465 857.123 24.4105 856.19 24.9035 855.398C25.4141 854.606 26.1095 853.989 26.9898 853.549C27.8701 853.109 28.8825 852.889 30.0269 852.889C31.2593 852.889 32.2893 853.109 33.1167 853.549C33.9618 853.972 34.5957 854.553 35.0182 855.292C35.4583 856.014 35.6784 856.806 35.6784 857.669C35.6784 858.655 35.4055 859.518 34.8597 860.257C34.314 860.997 33.5833 861.49 32.6678 861.736C33.7242 861.965 34.5957 862.484 35.2823 863.294C35.9689 864.087 36.3122 865.117 36.3122 866.384C36.3122 867.405 36.0746 868.347 35.5992 869.21C35.1238 870.055 34.4196 870.733 33.4865 871.243C32.5533 871.754 31.409 872.009 30.0533 872.009Z" fill="white"/>
            <path fill-rule="evenodd" clip-rule="evenodd" d="M29.3434 337.758C45.5494 337.758 58.6869 324.621 58.6869 308.415C58.6869 292.209 45.5494 279.071 29.3434 279.071C13.1375 279.071 0 292.209 0 308.415C0 324.621 13.1375 337.758 29.3434 337.758Z" fill="#DD2242"/>
            <path d="M24.0258 317.103V315.095C25.223 314.145 26.3674 313.185 27.459 312.217C28.5506 311.249 29.5189 310.298 30.364 309.365C31.2267 308.414 31.9045 307.49 32.3975 306.592C32.8905 305.676 33.137 304.796 33.137 303.951C33.137 303.387 33.0401 302.859 32.8465 302.366C32.6528 301.856 32.3359 301.451 31.8957 301.151C31.4556 300.835 30.8658 300.676 30.1263 300.676C29.0171 300.676 28.1809 301.028 27.6175 301.732C27.0717 302.437 26.8076 303.282 26.8252 304.268H24.1051C24.1227 302.965 24.3956 301.873 24.9237 300.993C25.4695 300.113 26.1914 299.444 27.0893 298.986C28.0048 298.528 29.0347 298.299 30.1791 298.299C31.9221 298.299 33.313 298.792 34.3518 299.778C35.4081 300.747 35.9363 302.102 35.9363 303.845C35.9363 304.884 35.681 305.914 35.1705 306.935C34.6775 307.956 34.0261 308.942 33.2162 309.893C32.4239 310.826 31.57 311.706 30.6545 312.534C29.739 313.361 28.8675 314.11 28.04 314.779H36.4909V317.103H24.0258Z" fill="white"/>
            <path fill-rule="evenodd" clip-rule="evenodd" d="M29.3434 58.9955C45.5494 58.9955 58.6869 45.858 58.6869 29.652C58.6869 13.4461 45.5494 0.308594 29.3434 0.308594C13.1375 0.308594 0 13.4461 0 29.652C0 45.858 13.1375 58.9955 29.3434 58.9955Z" fill="#DD2242"/>
            <path d="M28.8387 38.3398V23.0226L25.8545 23.7092V21.6493L29.9479 19.8535H31.7437V38.3398H28.8387Z" fill="white"/>
        
        </symbol>

        <symbol id="scroll-btn"  viewBox="0 0 124 124"> 

      
        <circle cx="62" cy="55" r="52" fill="#DD2242"/>
        <path fill-rule="evenodd" clip-rule="evenodd" d="M80.292 60.6276C81.3222 61.6577 81.3222 63.328 80.292 64.3581C79.2618 65.3883 77.5916 65.3883 76.5614 64.3581L62.1386 49.9353L47.5032 64.5707C46.473 65.6008 44.8028 65.6008 43.7726 64.5707C42.7425 63.5405 42.7425 61.8703 43.7726 60.8401L59.6276 44.9852C60.1526 44.4601 60.8439 44.2027 61.532 44.2128C62.4942 43.8006 63.6516 43.9872 64.437 44.7726L80.292 60.6276Z" fill="white"/>
        <feFlood flood-opacity="0" result="BackgroundImageFix"/>
        <feColorMatrix in="SourceAlpha" type="matrix" values="0 0 0 0 0 0 0 0 0 0 0 0 0 0 0 0 0 0 127 0" result="hardAlpha"/>
        <feOffset dy="7"/>
        <feGaussianBlur stdDeviation="5"/>
        <feColorMatrix type="matrix" values="0 0 0 0 0 0 0 0 0 0 0 0 0 0 0 0 0 0 0.2 0"/>
        <feBlend mode="normal" in2="BackgroundImageFix" result="effect1_dropShadow_26_150"/>
        <feBlend mode="normal" in="SourceGraphic" in2="effect1_dropShadow_26_150" result="shape"/>

        </symbol>

    </defs>

</svg>