<svg fill="currentColor" ria-hiddaen="true" style="position: absolute; width: 0; height: 0; overflow: hidden;" version="1.1" xmlns="http://www.w3.org/2000/svg" xmlns:xlink="http://www.w3.org/1999/xlink">
    
    <defs>

      
        <symbol id="search" viewBox="0 0 24 24"> 

            <path d="M16.3805 14H15.5905L15.3105 13.73C16.2905 12.59 16.8805 11.11 16.8805 9.5C16.8805 5.91 13.9705 3 10.3805 3C6.79049 3 3.88049 5.91 3.88049 9.5C3.88049 13.09 6.79049 16 10.3805 16C11.9905 16 13.4705 15.41 14.6105 14.43L14.8805 14.71V15.5L19.8805 20.49L21.3705 19L16.3805 14ZM10.3805 14C7.89049 14 5.88049 11.99 5.88049 9.5C5.88049 7.01 7.89049 5 10.3805 5C12.8705 5 14.8805 7.01 14.8805 9.5C14.8805 11.99 12.8705 14 10.3805 14Z" fill="white"/>

        </symbol>

        <symbol id="arrow-to-left" viewBox="0 0 15 24">   
            <path fill-rule="evenodd" clip-rule="evenodd" d="M6.07336 12.1394L13.5725 19.6386C14.5489 20.6149 14.5489 22.1978 13.5725 23.1741C12.5962 24.1504 11.0133 24.1504 10.037 23.1741L0.732233 13.8693C-0.244078 12.893 -0.244078 11.3101 0.732233 10.3338C0.857529 10.2085 0.992815 10.0993 1.13553 10.0061L10.4094 0.732233C11.3858 -0.244078 12.9687 -0.244078 13.945 0.732233C14.9213 1.70854 14.9213 3.29146 13.945 4.26777L6.07336 12.1394Z" fill="#020B20"/>
        </symbol>

        <symbol id="arrow-to-right" viewBox="0 0 15 24">   
            <path fill-rule="evenodd" clip-rule="evenodd" d="M8.60389 12.1394L1.1047 19.6386C0.128388 20.6149 0.128388 22.1978 1.1047 23.1741C2.08101 24.1504 3.66392 24.1504 4.64023 23.1741L13.945 13.8693C14.9213 12.893 14.9213 11.3101 13.945 10.3338C13.8197 10.2085 13.6844 10.0993 13.5417 10.0061L4.2678 0.732233C3.29149 -0.244078 1.70858 -0.244078 0.732269 0.732233C-0.244041 1.70854 -0.244041 3.29146 0.732269 4.26777L8.60389 12.1394Z" fill="#020B20"/>
        </symbol>

        <symbol id="circles" viewBox="0 0 196 19">   
           
            <circle cx="85.5" cy="9.5" r="9.5" fill="#85A3B2"/>
            <circle cx="44.5" cy="9.5" r="9.5" fill="#85A3B2"/>
            <circle cx="9.5" cy="9.5" r="9.5" fill="#85A3B2"/>
            <circle cx="186.5" cy="9.5" r="9.5" fill="#85A3B2"/>
            <rect x="110" width="50" height="19" rx="9.5" fill="#DD2242"/>
            
        </symbol>


    </defs>

</svg>